<?xml version="1.0" standalone="no"?>
<!DOCTYPE svg PUBLIC "-//W3C//DTD SVG 20010904//EN"
 "http://www.w3.org/TR/2001/REC-SVG-20010904/DTD/svg10.dtd">
<svg version="1.0" xmlns="http://www.w3.org/2000/svg"
 width="571.000000pt" height="532.000000pt" viewBox="0 0 571.000000 532.000000"
 preserveAspectRatio="xMidYMid meet">
<metadata>
Created by potrace 1.15, written by Peter Selinger 2001-2017
</metadata>
<g transform="translate(0.000000,532.000000) scale(0.100000,-0.100000)"
fill="#000000" stroke="none">
<path d="M2645 4854 c-588 -61 -1049 -277 -1422 -668 -296 -309 -476 -670
-549 -1101 -22 -127 -24 -441 -5 -575 63 -441 256 -830 573 -1156 l109 -112 6
-426 c3 -234 8 -426 10 -426 1 0 162 97 357 215 l355 215 107 -30 c807 -227
1642 -7 2209 581 302 313 495 708 556 1139 19 134 17 448 -5 575 -72 426 -259
802 -550 1103 -338 350 -770 572 -1256 647 -102 15 -414 27 -495 19z m1140
-1449 c129 -13 263 -58 388 -128 69 -39 97 -74 97 -122 0 -54 -58 -125 -104
-125 -11 0 -66 22 -121 50 -143 72 -236 93 -415 94 -205 1 -222 -5 -499 -182
-197 -126 -339 -212 -676 -412 -220 -131 -336 -170 -515 -177 -148 -6 -223 8
-331 63 -100 50 -119 71 -119 132 0 41 5 55 28 80 47 50 85 51 185 2 74 -36
97 -43 169 -47 138 -8 264 27 422 117 133 77 476 287 702 432 111 70 226 139
257 152 161 72 321 93 532 71z m-19 -344 c115 -22 253 -92 290 -148 25 -37 21
-78 -11 -126 -40 -62 -82 -62 -203 0 -79 40 -103 48 -163 51 -125 7 -150 -4
-649 -307 -657 -398 -714 -428 -875 -467 -99 -24 -331 -24 -445 0 -165 35
-341 114 -394 177 -51 60 -19 152 62 177 39 13 45 12 80 -7 83 -47 163 -81
243 -102 71 -20 109 -23 249 -23 153 -1 170 1 230 25 73 28 197 100 765 439
424 253 485 286 554 306 55 15 199 18 267 5z"/>
</g>
</svg>
